<svg xmlns="http://www.w3.org/2000/svg" xmlns:vectornator="http://vectornator.io" stroke-linecap="round" stroke-linejoin="round" stroke-miterlimit="10" clip-rule="evenodd" viewBox="0 0 841.995 595.35"><g vectornator:layerName="Layer 1"><g vectornator:layerName="Group 1"><path vectornator:layerName="Rectangle 1" fill="#7b66ff" d="M55.63 66.735c0-18.778 15.224-34 34-34h119.942c18.778 0 34 15.222 34 34v82.915c0 18.778-15.222 34-34 34H89.631c-18.777 0-34-15.222-34-34V66.735z"/><path vectornator:layerName="Rectangle 2" fill="#7b66ff" d="M34.119 98.167a4.823 4.823 0 0 1 4.823-4.823h8.093a4.823 4.823 0 0 1 4.823 4.823v46.581a4.823 4.823 0 0 1-4.823 4.824h-8.093a4.823 4.823 0 0 1-4.823-4.824V98.167z"/><path vectornator:layerName="Rectangle 3" fill="#7b66ff" d="M247.161 98.167a4.823 4.823 0 0 1 4.824-4.823h8.092a4.823 4.823 0 0 1 4.824 4.823v46.581a4.824 4.824 0 0 1-4.824 4.824h-8.092a4.824 4.824 0 0 1-4.824-4.824V98.167z"/><g vectornator:layerName="Group 1"><path vectornator:layerName="Rectangle 4" fill="#fff" d="M81.378 94.15c0-8.836 7.164-16 16-16h104.447c8.837 0 16 7.164 16 16v54.615c0 8.837-7.163 16-16 16H97.378c-8.836 0-16-7.163-16-16V94.151z"/><path vectornator:layerName="Oval 1" fill="#7b66ff" d="M103.849 120.724c0-9.235 7.628-16.722 17.038-16.722s17.038 7.487 17.038 16.722c0 9.235-7.628 16.721-17.038 16.721s-17.038-7.486-17.038-16.721z"/><path vectornator:layerName="Oval 2" fill="#7b66ff" d="M157.955 120.724c0-9.235 7.628-16.722 17.038-16.722s17.039 7.487 17.039 16.722c0 9.235-7.629 16.721-17.039 16.721-9.41 0-17.038-7.486-17.038-16.721z"/></g></g></g></svg>